<?xml version="1.0" standalone="no"?><svg xmlns="http://www.w3.org/2000/svg" viewBox="0 0 1440 320"><path fill="#2F5150" fill-opacity="0.5" d="M0,64L34.3,90.7C68.6,117,137,171,206,181.3C274.3,192,343,160,411,133.3C480,107,549,85,617,96C685.7,107,754,149,823,138.7C891.4,128,960,64,1029,74.7C1097.1,85,1166,171,1234,176C1302.9,181,1371,107,1406,69.3L1440,32L1440,0L1405.7,0C1371.4,0,1303,0,1234,0C1165.7,0,1097,0,1029,0C960,0,891,0,823,0C754.3,0,686,0,617,0C548.6,0,480,0,411,0C342.9,0,274,0,206,0C137.1,0,69,0,34,0L0,0Z"></path></svg>